<svg xmlns="http://www.w3.org/2000/svg" width="80" height="80" viewBox="0 0 80 80"><defs><style>.a{fill:#312783;}.b{fill:#fff;}</style></defs><g transform="translate(-643 -4607)"><path class="a" d="M283.608,414.827c-9.611-18.9-39.689-13.063-39.952,6.991.067,25.607,30.741,17.382,39.964,60.768,9.995-43.385,39.559-34.413,40.036-60.734C323.656,399.411,293.219,395.923,283.608,414.827Z" transform="translate(399.344 4204.415)"/><path class="b" d="M20.88-31.1a3.585,3.585,0,0,0,.144-.96,2.256,2.256,0,0,0-2.4-2.256,2.566,2.566,0,0,0-2.4,1.68l-3.5,8.16a7.932,7.932,0,0,0-.672,3.12c0,2.3,1.2,4.416,4.032,4.416S20.3-19.152,20.3-21.6a6.108,6.108,0,0,0-1.344-3.792C19.584-27.312,20.208-29.184,20.88-31.1Zm-10.416,0a3.585,3.585,0,0,0,.144-.96,2.256,2.256,0,0,0-2.4-2.256,2.566,2.566,0,0,0-2.4,1.68L2.3-24.48a7.932,7.932,0,0,0-.672,3.12c0,2.3,1.2,4.416,4.032,4.416S9.888-19.152,9.888-21.6a6.108,6.108,0,0,0-1.344-3.792C9.168-27.312,9.792-29.184,10.464-31.1Z" transform="translate(671.672 4664.944)"/></g></svg>