<svg xmlns="http://www.w3.org/2000/svg" width="250" height="79.365" viewBox="0 0 250 79.365"><defs><style>.a{fill:#fff;}.b{fill:#e2335a;}</style></defs><g transform="translate(480.633 -558.361) rotate(90)"><path class="a" d="M565.2,455.4a6.1,6.1,0,0,1-6.281-6.121V436.131c0-10.379,5.908-12.722,9.953-12.722a8.519,8.519,0,0,1,8.356,5.909c.692-4.525,3.673-6.813,8.145-6.813,4.523,0,10.272,3.3,10.272,12.668v14.1a6,6,0,0,1-6.228,6.121Zm5.962-13.678h3.725v-1.49c0-1.651-.213-3.3-1.863-3.3-1.916,0-1.862,1.864-1.862,4.045Zm12.827-2.289c0-2.129-.692-3.3-2.181-3.3-1.172,0-1.97,1.277-1.97,2.767v2.821h4.151Z" transform="translate(0.08 24.679)"/><path class="a" d="M565.706,419.4c-3.512,0-7.345-1.864-7.345-6.76,0-5.057,3.833-6.973,7.345-6.973h23.366c3.566,0,7.292,1.916,7.292,6.973,0,4.9-3.726,6.76-7.292,6.76Z" transform="translate(0 22.736)"/><path class="a" d="M565.008,370.9c3.139-1.65,9.687-.427,9.793,5.535.106,5-2.608,4.737-2.608,9.315,0,2.714,1.277,4.9,5.695,4.9,3.353,0,5.376-1.066,5.376-3.94,0-1.543-.106-3.779-1.7-3.779-2.342,0,.267,4.312-3.618,4.312-1.757,0-2.609-.959-2.609-3.142v-8.836c0-4.2,1.916-6.44,5.641-6.44h8.889c4.524,0,6.44,3.194,6.44,6.228,0,3.087-1.17,6.333-5.8,6.76l-2.928.264v.747c5.8.585,8.729,3.99,8.729,9.686,0,8.623-7.823,12.668-18.628,12.668-12.667,0-19.268-7.291-19.268-18.1C558.407,380.318,560.111,373.5,565.008,370.9Z" transform="translate(0.007 17.745)"/><path class="a" d="M565.706,353.858c-3.512,0-7.345-1.864-7.345-6.76,0-5.057,3.833-6.973,7.345-6.973h16.926v-3.512a6.547,6.547,0,0,1,13.094,0V347.1c0,4.9-3.726,6.76-7.292,6.76Z" transform="translate(0 12.861)"/><path class="a" d="M587.156,289.122l-17.83,5.909c-6.76,2.075-10.964-2.023-10.964-6.6,0-3.884,2.075-6.653,6.546-7.61L580.449,278l-15.542-2.821c-4.471-.959-6.546-3.726-6.546-7.611,0-4.577,4.2-8.675,10.964-6.6l17.83,5.908c8.25,2.553,9.048,6.759,9.048,11.124S595.405,286.568,587.156,289.122Z" transform="translate(0 4.289)"/><path class="a" d="M572.013,245.261h2.395l-.8-2.553c-1.225-3.78-.214-6.974,3.405-6.974s4.525,2.769,3.673,7.346l-.372,2.182h2.236v-7.5a6.547,6.547,0,0,1,13.094,0v14.478c0,4.9-3.726,6.76-7.292,6.76H566.265c-3.514,0-7.346-1.864-7.346-6.813V238.449a6.547,6.547,0,0,1,13.094,0Z" transform="translate(0.08 0.091)"/><path class="a" d="M623.795,443.328c0-1.263-.633-2.064-1.349-2.064-2.654.126.675,12.933-10.025,12.933-5.393,0-9.352-4.086-9.732-11.206-.336-5.729.8-10.742,4.086-12.6,1.812-1.054,5.729-1.264,7.457,1.6a4.11,4.11,0,0,1,.043,3.707c-.632,1.475-2.023,2.275-2.023,4.086,0,.8.3,1.855,1.138,1.855,2.78-.127-1.391-12.26,9.015-12.26,6.192,0,10.32,5.266,10.32,12.554,0,6.235-1.811,12.765-7.33,13.017a4.754,4.754,0,0,1-3.749-8.088C622.488,446.024,623.795,445.14,623.795,443.328Z" transform="translate(4.959 25.67)"/><path class="a" d="M619.706,411.514v.422l7.33,1.558c3.749.8,5.729,3.159,5.729,6.655,0,3.623-1.853,5.941-5.477,6.952l-16.935,4.633c-5.265,1.306-7.708-1.643-7.708-5.139,0-3.329,1.432-5.393,5.855-6.15l8.384-1.432v-.254l-9.226-1.895c-3.033-.633-4.887-1.9-4.887-5.14s1.855-4.508,4.887-5.14l9.226-1.895v-.253L608.5,403c-4.423-.757-5.855-2.821-5.855-6.149,0-3.5,2.444-6.447,7.708-5.139l16.935,4.633c3.623,1.011,5.477,3.328,5.477,6.951,0,3.5-1.98,5.855-5.729,6.656Z" transform="translate(4.961 20.198)"/><path class="a" d="M608.458,388.965c-2.78,0-5.813-1.475-5.813-5.35,0-4,3.033-5.519,5.813-5.519h18.494c2.824,0,5.772,1.517,5.772,5.519,0,3.875-2.948,5.35-5.772,5.35Z" transform="translate(4.961 19.179)"/><path class="a" d="M610.438,361.576l5.349-1.644-5.349-1.643c-5.772-1.517-7.793-3.79-7.793-8.382,0-4.929,3.033-7.457,6.994-7.457h17.776c2.613,0,5.351,1.39,5.351,4.971,0,3.708-2.738,5.14-5.351,5.14h-8.678l11.164,3.327a4.314,4.314,0,0,1,0,8.088l-11.164,3.329h8.678c2.613,0,5.351,1.432,5.351,5.139,0,3.581-2.738,4.971-5.351,4.971H609.639c-3.961,0-6.994-2.528-6.994-7.457C602.645,365.366,604.667,363.092,610.438,361.576Z" transform="translate(4.961 14.37)"/><path class="a" d="M626.062,305.023c4.339,1.979,6.7,6.783,6.7,12.6,0,9.183-5.855,14.533-15.039,14.533-9.605,0-15.041-5.728-15.041-14.28,0-5.351,2.15-10.025,5.561-12.006,3.243-1.854,8.3-.633,8.426,3.79.126,4.381-2.612,4.129-2.612,7.667,0,1.811.757,3.749,3.539,3.749,2.865,0,3.833-1.98,3.833-4.044a5.3,5.3,0,0,0-1.179-3.286,6.925,6.925,0,0,1-1.685-4.17C618.564,305.023,623.029,303.506,626.062,305.023Z" transform="translate(4.966 9.524)"/><path class="a" d="M608.458,302.637c-2.78,0-5.813-1.475-5.813-5.351,0-4,3.033-5.518,5.813-5.518h13.4v-2.781a5.182,5.182,0,0,1,10.363,0v8.3c0,3.876-2.948,5.351-5.771,5.351Z" transform="translate(4.961 6.896)"/><path class="a" d="M620.886,284.578H608.458c-2.78,0-5.813-1.475-5.813-5.351,0-4,3.033-5.518,5.813-5.518h10.364c2.191,0,3.411-.675,3.411-2.571s-1.221-2.569-3.411-2.569H608.458c-2.78,0-5.813-1.517-5.813-5.519,0-3.875,3.033-5.35,5.813-5.35h12.428c8.173,0,11.838,5.477,11.838,13.438S629.059,284.578,620.886,284.578Z" transform="translate(4.961 3.899)"/><path class="a" d="M608.058,256.667a4.828,4.828,0,0,1-4.972-4.844V241.417c0-8.214,4.677-10.069,7.878-10.069a6.743,6.743,0,0,1,6.615,4.677c.547-3.581,2.906-5.392,6.444-5.392,3.581,0,8.131,2.611,8.131,10.025v11.165a4.746,4.746,0,0,1-4.929,4.844Zm4.718-10.827h2.948V244.66c0-1.307-.168-2.612-1.473-2.612-1.517,0-1.475,1.475-1.475,3.2Zm10.152-1.811c0-1.685-.548-2.612-1.726-2.612-.928,0-1.559,1.01-1.559,2.191v2.232h3.286Z" transform="translate(5.024 0)"/><path class="b" d="M18.31,0C7.665,0,0,7.079,0,19S7.665,38,18.31,38s18.308-7.079,18.308-19S28.955,0,18.31,0Zm.155,27.032c-1.765-8.209-7.636-6.652-7.649-11.5.05-3.793,5.808-4.9,7.647-1.322,1.84-3.577,7.665-2.917,7.665,1.329C26.037,20.52,20.378,18.823,18.464,27.032Z" transform="translate(558.361 339.275) rotate(-90)"/></g></svg>