<svg xmlns="http://www.w3.org/2000/svg" width="126" height="40" viewBox="0 0 126 40"><defs><style>.a{fill:#312783;}.b{fill:#e2335a;}</style></defs><g transform="translate(356.633 -558.361) rotate(90)"><path class="a" d="M562.085,439.083A3.074,3.074,0,0,1,558.919,436v-6.626c0-5.231,2.978-6.412,5.016-6.412a4.294,4.294,0,0,1,4.212,2.978,3.77,3.77,0,0,1,4.1-3.434c2.28,0,5.177,1.663,5.177,6.385V436a3.023,3.023,0,0,1-3.139,3.085Zm3-6.894h1.877v-.751c0-.832-.107-1.663-.939-1.663-.966,0-.939.939-.939,2.039Zm6.465-1.154c0-1.073-.349-1.663-1.1-1.663-.591,0-.993.643-.993,1.395v1.422h2.092Z" transform="translate(-0.236 -82.73)"/><path class="a" d="M562.063,412.588c-1.77,0-3.7-.939-3.7-3.407a3.4,3.4,0,0,1,3.7-3.514h11.776a3.365,3.365,0,0,1,3.675,3.514c0,2.468-1.878,3.407-3.675,3.407Z" transform="translate(0 -75.358)"/><path class="a" d="M561.734,369.868c1.582-.831,4.882-.215,4.936,2.79.054,2.521-1.315,2.388-1.315,4.695,0,1.368.643,2.468,2.87,2.468,1.69,0,2.709-.537,2.709-1.986,0-.778-.054-1.9-.859-1.9-1.18,0,.134,2.173-1.824,2.173-.886,0-1.315-.483-1.315-1.583v-4.453c0-2.119.966-3.246,2.843-3.246h4.48a3.02,3.02,0,0,1,3.246,3.139c0,1.556-.59,3.192-2.924,3.407l-1.476.133v.376c2.924.295,4.4,2.011,4.4,4.882,0,4.346-3.943,6.385-9.389,6.385-6.384,0-9.711-3.675-9.711-9.121C558.407,374.615,559.266,371.182,561.734,369.868Z" transform="translate(-0.019 -59.598)"/><path class="a" d="M562.063,342.083c-1.77,0-3.7-.939-3.7-3.407a3.4,3.4,0,0,1,3.7-3.514h8.531v-1.77a3.3,3.3,0,0,1,6.6,0v5.285c0,2.468-1.878,3.407-3.675,3.407Z" transform="translate(0 -42.863)"/><path class="a" d="M572.873,274.882l-8.986,2.978c-3.407,1.046-5.526-1.019-5.526-3.327a3.69,3.69,0,0,1,3.3-3.836l7.833-1.422-7.833-1.422a3.69,3.69,0,0,1-3.3-3.836c0-2.307,2.119-4.372,5.526-3.326l8.986,2.978c4.158,1.287,4.56,3.407,4.56,5.606S577.031,273.595,572.873,274.882Z" transform="translate(0 -12.609)"/><path class="a" d="M565.518,238.319h1.207l-.4-1.287c-.618-1.905-.108-3.515,1.716-3.515s2.281,1.4,1.851,3.7l-.187,1.1h1.127v-3.783a3.3,3.3,0,0,1,6.6,0v7.3c0,2.468-1.878,3.407-3.675,3.407H562.621c-1.771,0-3.7-.939-3.7-3.434v-6.921a3.3,3.3,0,0,1,6.6,0Z" transform="translate(-0.236 -0.267)"/><path class="a" d="M613.3,436.412c0-.637-.319-1.04-.68-1.04-1.338.063.34,6.518-5.053,6.518-2.718,0-4.714-2.06-4.905-5.648-.17-2.888.4-5.414,2.06-6.348a2.892,2.892,0,0,1,3.758.807,2.072,2.072,0,0,1,.021,1.868c-.318.743-1.02,1.147-1.02,2.06,0,.4.149.935.574.935,1.4-.064-.7-6.179,4.544-6.179,3.121,0,5.2,2.654,5.2,6.327,0,3.142-.913,6.434-3.694,6.561a2.4,2.4,0,0,1-1.89-4.077A2.459,2.459,0,0,0,613.3,436.412Z" transform="translate(-19.459 -85.643)"/><path class="a" d="M611.244,401.537v.213l3.694.785a3.248,3.248,0,0,1,2.888,3.354,3.37,3.37,0,0,1-2.76,3.5l-8.535,2.335c-2.654.658-3.885-.828-3.885-2.59,0-1.678.722-2.718,2.951-3.1l4.225-.722v-.128l-4.65-.955c-1.529-.319-2.463-.955-2.463-2.591s.935-2.272,2.463-2.591l4.65-.955v-.127l-4.225-.722c-2.229-.382-2.951-1.422-2.951-3.1,0-1.763,1.232-3.249,3.885-2.59l8.535,2.335a3.369,3.369,0,0,1,2.76,3.5,3.249,3.249,0,0,1-2.888,3.355Z" transform="translate(-19.465 -69.56)"/><path class="a" d="M605.575,383.574a2.658,2.658,0,0,1-2.93-2.7,2.689,2.689,0,0,1,2.93-2.782H614.9a2.663,2.663,0,0,1,2.909,2.782,2.631,2.631,0,0,1-2.909,2.7Z" transform="translate(-19.465 -63.475)"/><path class="a" d="M606.573,352.09l2.7-.829-2.7-.828c-2.909-.765-3.928-1.91-3.928-4.225,0-2.484,1.529-3.758,3.525-3.758h8.959a2.448,2.448,0,0,1,2.7,2.505,2.48,2.48,0,0,1-2.7,2.591h-4.374l5.626,1.677a2.174,2.174,0,0,1,0,4.077l-5.626,1.678h4.374a2.48,2.48,0,0,1,2.7,2.59,2.448,2.448,0,0,1-2.7,2.505H606.17c-2,0-3.525-1.274-3.525-3.758C602.645,354,603.664,352.854,606.573,352.09Z" transform="translate(-19.465 -48.219)"/><path class="a" d="M614.465,304.74c2.187,1,3.376,3.419,3.376,6.348,0,4.628-2.951,7.325-7.579,7.325-4.841,0-7.581-2.887-7.581-7.2,0-2.7,1.083-5.053,2.8-6.051,1.635-.935,4.183-.319,4.247,1.91.063,2.208-1.316,2.081-1.316,3.864a1.669,1.669,0,0,0,1.783,1.89,1.818,1.818,0,0,0,1.932-2.038,2.67,2.67,0,0,0-.594-1.656,3.49,3.49,0,0,1-.849-2.1A2.548,2.548,0,0,1,614.465,304.74Z" transform="translate(-19.48 -31.815)"/><path class="a" d="M605.575,293.317a2.658,2.658,0,0,1-2.93-2.7,2.689,2.689,0,0,1,2.93-2.781h6.752v-1.4a2.612,2.612,0,0,1,5.223,0v4.183a2.631,2.631,0,0,1-2.908,2.7Z" transform="translate(-19.465 -22.919)"/><path class="a" d="M611.838,271.247h-6.264a2.658,2.658,0,0,1-2.93-2.7,2.689,2.689,0,0,1,2.93-2.781H610.8c1.1,0,1.719-.34,1.719-1.3s-.615-1.3-1.719-1.3h-5.223a2.689,2.689,0,0,1-2.93-2.781,2.658,2.658,0,0,1,2.93-2.7h6.264c4.119,0,5.966,2.76,5.966,6.773S615.958,271.247,611.838,271.247Z" transform="translate(-19.465 -11.461)"/><path class="a" d="M605.592,243.754a2.433,2.433,0,0,1-2.506-2.441v-5.245c0-4.14,2.357-5.075,3.97-5.075a3.4,3.4,0,0,1,3.334,2.357,2.983,2.983,0,0,1,3.248-2.718c1.8,0,4.1,1.316,4.1,5.053v5.627a2.392,2.392,0,0,1-2.484,2.441Zm2.378-5.457h1.486V237.7c0-.658-.085-1.316-.743-1.316-.765,0-.743.743-.743,1.614Zm5.117-.913c0-.849-.276-1.316-.87-1.316-.468,0-.786.509-.786,1.1V238.3h1.656Z" transform="translate(-19.652 0)"/><path class="b" d="M9.228,0C3.863,0,0,3.568,0,9.577s3.863,9.577,9.228,9.577,9.227-3.568,9.227-9.577S14.593,0,9.228,0Zm.078,13.624c-.89-4.137-3.848-3.353-3.855-5.795.025-1.912,2.927-2.469,3.854-.666.927-1.8,3.863-1.47,3.863.67C13.122,10.342,10.27,9.487,9.306,13.624Z" transform="translate(558.361 285.389) rotate(-90)"/></g></svg>