<svg xmlns="http://www.w3.org/2000/svg" width="80" height="80" viewBox="0 0 80 80"><defs><style>.a{fill:#e2335a;}.b{fill:#fff;}</style></defs><g transform="translate(-328 -1739)"><path class="a" d="M283.608,414.827c-9.611-18.9-39.689-13.063-39.952,6.991.067,25.607,30.741,17.382,39.964,60.768,9.995-43.385,39.559-34.413,40.036-60.734C323.656,399.411,293.219,395.923,283.608,414.827Z" transform="translate(84.344 1336.415)"/><path class="b" d="M10.768.695,8.218,5.866,2.512,6.7A1.25,1.25,0,0,0,1.82,8.831l4.128,4.023-.976,5.683a1.249,1.249,0,0,0,1.812,1.316l5.1-2.683,5.1,2.683a1.25,1.25,0,0,0,1.812-1.316l-.976-5.683,4.128-4.023A1.25,1.25,0,0,0,21.267,6.7l-5.706-.832L13.01.695a1.251,1.251,0,0,0-2.242,0Z" transform="translate(356.111 1762.999)"/></g></svg>